#!OML:ASF E:\id_vita\Project 1\Capture day 1\Session 1\Female.ASF
:FULLY-SPECIFIED
:DEGREES
791
root -18.4364 16.1373 1.80513 -161.764 55.8877 -177.276
lowerback -12.4726 -4.15989 -2.75274
upperback -5.41727 -4.94848 4.15904
thorax 1.89209 -2.24894 5.20173
lowerneck 5.70193 -5.31997 -9.31258
upperneck 2.95964 -7.63835 12.7075
head 0.785352 -3.88544 5.37433
rclavicle 1.13773e-014 -3.49861e-014
rhumerus -52.6342 -37.6648 -51.5296
rradius 24.2842
rwrist 5.47479
rhand -17.4705 -0.172068
rfingers 7.12502
rthumb 8.7813 -29.9694
lclavicle 1.13773e-014 -3.49861e-014
lhumerus -26.066 2.42478 95.3367
lradius 28.7125
lwrist -17.0485
lhand -2.95643 27.2022
lfingers 7.12502
lthumb 22.7558 55.8802
rfemur -39.9541 -7.54232 19.7155
rtibia 30.4648
rfoot 3.7423 -13.9609
rtoes -2.84134
lfemur -2.91233 -11.1618 -19.9293
ltibia 17.5135
lfoot -18.4382 45.3717
ltoes 0.814499
792
root -18.3403 16.1254 1.79806 -161.177 56.2546 -177.226
lowerback -12.9371 -4.15767 -2.32994
upperback -5.60992 -4.95853 4.08913
thorax 1.90126 -2.24437 4.86799
lowerneck 5.61088 -5.23024 -9.35244
upperneck 2.88808 -7.51273 12.8044
head 0.76981 -3.82232 5.41067
rclavicle -6.53939e-014 -9.54166e-015
rhumerus -53.3687 -38.2973 -50.4793
rradius 23.7052
rwrist 6.44763
rhand -17.5666 0.828987
rfingers 7.12502
rthumb 8.68857 -28.9722
lclavicle -6.53939e-014 -9.54166e-015
lhumerus -26.2356 3.2159 95.0875
lradius 28.784
lwrist -17.0673
lhand -3.64036 27.6259
lfingers 7.12502
lthumb 22.0993 56.383
rfemur -40.8543 -7.95793 20.254
rtibia 31.0884
rfoot 2.78115 -13.2046
rtoes -2.2236
lfemur -3.47912 -10.5183 -19.6609
ltibia 18.0675
lfoot -17.6814 44.8847
ltoes -1.53755
793
root -18.211 16.1142 1.80478 -161.131 56.818 -176.769
lowerback -12.8478 -4.08675 -2.13079
upperback -5.47896 -4.90364 4.06523
thorax 1.96687 -2.22817 4.73928
lowerneck 5.54489 -5.14156 -9.42585
upperneck 2.89633 -7.39655 12.9749
head 0.778038 -3.76266 5.475
rclavicle -8.29367e-014 -5.40694e-014
rhumerus -54.1103 -38.6543 -49.7912
rradius 23.4595
rwrist 7.16071
rhand -17.5302 1.27584
rfingers 7.12502
rthumb 8.72373 -28.5239
lclavicle -8.29367e-014 -5.40694e-014
lhumerus -26.3849 4.18684 94.614
lradius 28.7615
lwrist -17.5448
lhand -3.61529 27.7085
lfingers 7.12502
lthumb 22.1234 56.4628
rfemur -40.5708 -7.80553 20.8133
rtibia 31.7465
rfoot 1.9548 -13.1522
rtoes -2.38665
lfemur -2.81384 -9.71953 -19.3134
ltibia 18.4394
lfoot -16.7421 44.5129
ltoes -3.9102
794
root -18.1341 16.1041 1.79943 -160.182 56.971 -176.421
lowerback -13.1192 -3.94768 -1.55804
upperback -5.69662 -4.75258 4.06897
thorax 1.82488 -2.14115 4.43691
lowerneck 5.38559 -5.23824 -9.32858
upperneck 2.71236 -7.50068 13.0183
head 0.760577 -3.81254 5.46768
rclavicle 4.34407e-014 0
rhumerus -54.6184 -39.5597 -48.6582
rradius 23.0567
rwrist 8.0848
rhand -17.4845 0.771543
rfingers 7.12502
rthumb 8.76777 -29.0263
lclavicle 4.34407e-014 0
lhumerus -26.3795 5.00518 94.4331
lradius 28.5909
lwrist -18.1953
lhand -3.51403 27.1968
lfingers 7.12502
lthumb 22.2206 55.9395
rfemur -41.5182 -8.1549 21.5049
rtibia 32.2693
rfoot 1.48006 -12.9386
rtoes -2.70402
lfemur -3.71953 -9.40464 -18.83
ltibia 19.1701
lfoot -16.5316 44.0577
ltoes -4.26673
795
root -17.9701 16.1095 1.82986 -160.596 57.2583 -176.353
lowerback -13.0254 -4.04177 -2.35408
upperback -5.49085 -4.81556 4.26698
thorax 2.07566 -2.1791 5.08385
lowerneck 5.25305 -5.23048 -9.40229
upperneck 2.66085 -7.48585 13.058
head 0.76979 -3.80367 5.48844
rclavicle 2.2764e-014 9.54166e-015
rhumerus -55.0183 -39.9874 -47.8112
rradius 22.7647
rwrist 8.71589
rhand -17.352 0.312005
rfingers 7.12502
rthumb 8.89573 -29.4805
lclavicle 2.2764e-014 9.54166e-015
lhumerus -26.6942 5.85701 94.2492
lradius 28.6192
lwrist -18.378
lhand -3.87022 26.8564
lfingers 7.12502
lthumb 21.8786 55.6395
rfemur -40.6891 -7.8551 21.792
rtibia 32.7707
rfoot 0.641174 -13.5498
rtoes -3.02215
lfemur -2.93645 -7.89349 -18.4065
ltibia 19.7471
lfoot -17.2667 42.6469
ltoes -4.61471
796
root -17.8493 16.1082 1.84378 -160.42 57.6273 -176.13
lowerback -13.0305 -4.06543 -2.27691
upperback -5.48427 -4.8581 4.27225
thorax 2.08423 -2.20204 5.03824
lowerneck 5.02664 -5.15003 -9.49337
upperneck 2.92145 -7.38879 13.2068
head 0.879784 -3.74318 5.54035
rclavicle 4.78326e-015 -2.62396e-014
rhumerus -55.2706 -40.2122 -47.4659
rradius 22.5006
rwrist 9.10365
rhand -17.3167 -0.0032735
rfingers 7.12502
rthumb 8.92972 -29.7943
lclavicle 4.78326e-015 -2.62396e-014
lhumerus -27.1016 6.8143 93.7094
lradius 28.7195
lwrist -18.6553
lhand -3.84212 26.3735
lfingers 7.12502
lthumb 21.9056 55.1534
rfemur -40.5298 -7.92233 22.3002
rtibia 33.0564
rfoot -0.203787 -13.4685
rtoes -2.9285
lfemur -2.97295 -6.89612 -18.0092
ltibia 20.6122
lfoot -17.7169 41.6452
ltoes -4.49175
797
root -17.7198 16.1101 1.85814 -160.363 58.0383 -175.992
lowerback -13.0531 -4.18308 -2.21562
upperback -5.41148 -5.03165 4.26776
thorax 2.1858 -2.29585 4.9665
lowerneck 4.78086 -4.98443 -9.72014
upperneck 3.13044 -7.18235 13.4483
head 0.972658 -3.63036 5.64628
rclavicle -5.36532e-014 3.26007e-014
rhumerus -55.1218 -40.2515 -47.6121
rradius 22.2036
rwrist 9.5239
rhand -17.5158 -0.432096
rfingers 7.12502
rthumb 8.73757 -30.2312
lclavicle -5.36532e-014 3.26007e-014
lhumerus -27.4169 8.01247 92.9951
lradius 28.7528
lwrist -18.921
lhand -3.71421 25.8857
lfingers 7.12502
lthumb 22.0284 54.6512
rfemur -40.3108 -7.80078 22.6807
rtibia 33.4943
rfoot -1.13532 -13.6818
rtoes -3.22902
lfemur -2.65077 -5.91513 -17.6589
ltibia 20.9472
lfoot -17.1806 40.6198
ltoes -4.53519
